<?xml version="1.0" encoding="utf-8"?>
<!-- Generator: Adobe Illustrator 21.1.0, SVG Export Plug-In . SVG Version: 6.00 Build 0)  -->
<svg version="1.1" id="Layer_1" xmlns="http://www.w3.org/2000/svg" xmlns:xlink="http://www.w3.org/1999/xlink" x="0px" y="0px"
	 viewBox="0 0 192 192" style="enable-background:new 0 0 192 192;" xml:space="preserve">
<style type="text/css">
	.st0{fill:#B13A25;}
	.st1{opacity:0.17;}
</style>
<g>
	<g>
		<g>
			<path class="st0" d="M136.1,83.5c0.4-0.3,1-0.3,1.3,0.1l30.8,35.4c1.6-4.9,2.6-10.1,3.2-15.3l-32.8-21.9
				c-0.4-0.2-0.6-0.8-0.2-1.2c0.2-0.4,0.8-0.6,1.2-0.2l32,21.2c0.2-1.8,0.2-3.7,0.2-5.6c0-1.3,0-2.5-0.1-3.7l-32-14.1
				c-0.5-0.2-0.6-0.7-0.5-1.2c0.2-0.5,0.7-0.6,1.2-0.5l31.1,13.8c-0.4-4.9-1.2-9.8-2.5-14.4l-28.4-1c-0.5,0-0.9-0.4-0.9-1
				c0-0.5,0.4-0.9,1-0.9l27.8,1c-1.1-3.7-2.5-7.2-4.1-10.6l-24.5,7c-0.1,0-0.2,0-0.2,0c-0.4,0-0.7-0.2-0.9-0.6
				c-0.2-0.5,0.2-1,0.6-1.1l24.2-6.9c-1.4-2.9-3-5.6-4.8-8.3l-20.4,13.1c-0.2,0.1-0.3,0.2-0.5,0.2c-0.3,0-0.6-0.2-0.7-0.4
				c-0.2-0.4-0.2-1,0.2-1.2l20.3-13C144,32.9,121.5,20.3,96,20.3c-41.8,0-75.7,33.9-75.7,75.7c0,18.8,6.8,35.9,18.1,49.1
				c0.6-1.8,1.1-3.6,1.7-5.4c1-2.4,1.7-4.8,2.2-7.4c-0.1-2.2,0.2-4.5,1-6.6c0.6-1.4,1.2-2.6,1.7-4c0.2-0.4,2.5-5.4,2.8-5.6
				c0.3-0.3,0.6-0.9,1.1-0.4c0.3,0.3,0.2,1.4,0.2,1.9c0.1,0.7,0.1,1.4,0.2,2.2c0.1,1.4,0.2,2.9,0.3,4.4c0.2,2.8,0.2,5.6,0.3,8.4
				c0.1,2.8-0.1,5.6,0,8.3c0.2,4.9,0.7,9.8,1.7,14.6c0.2,0.8,0.3,1.5,0.6,2.3c0.7,0.6,1.5,1,2.3,1.6c-0.5-1.6-0.9-3.2-1.1-4.8
				c-0.6-3.4-1-6.8-1.2-10.3c-0.2-2.9-1-21.1-1.2-23.3c-0.1-0.8-0.2-1.7-0.3-2.5l-0.3-2.2c-0.1-0.7-0.2-1.4,0-2.1
				c0.2-0.7,0.9-1.2,1.4-1.7c0.6-0.7,1-1.7,1.6-2.5c1.1-1.5,2-3.2,2.8-4.8c0.4-1,0.6-1.9,0.7-2.9c0-0.5,0-1-0.1-1.5
				c-0.1-0.4-0.1-0.6-0.3-1c-0.1-0.1-0.1-0.2-0.2-0.3c-0.3-0.6-0.7-1.3-1.2-1.7c-0.7-0.7-1.3-1.4-2-2.3c-0.6-0.7-1.4-1.4-0.9-2.3
				c0.3-0.6,1.4-0.6,1.9-0.5c1.2,0.2,2.4,0.2,3.6,0.2c0.6,0,1.2-0.3,1.6-0.8c0.2-0.3,0.2-1.3,0.2-1.7c0.1-0.6,0-1.2,0-1.7
				c-0.1-1.1-0.4-2.3-0.8-3.3c-0.9-2.2-2.4-3.7-4.3-5.2c-0.1-0.1-0.2-0.2-0.2-0.2c-0.2-0.2-0.3-0.4-0.4-0.6
				c-0.3-0.7-0.3-1.5-0.3-2.2c-0.4-3.7-0.2-7.6,0.4-11.3c0.5-2.6,2.3-4.8,4.8-5.6c-0.1,0-0.6-0.4-0.7-0.5c-0.2-0.2-0.6-0.2-0.8-0.3
				c-0.6-0.2-1.1-0.2-1.7-0.1C55,59.4,54.4,59.6,54,60c-0.5,0.4-0.6,1-1.3,1h-0.1c-0.1,0-0.1,0-0.2,0c-0.1-0.1-0.3-0.7-0.4-0.8
				c-0.1-0.3-0.1-0.6-0.2-1c-0.2-0.7-0.9-2.1-0.2-2.7c0.3-0.3,0.7-0.4,1.2-0.4c0.4,0,1,0.2,1.3-0.2c0.5-0.4,0.8-1,1.2-1.5
				c0.3-0.4,0.7-0.6,1.2-0.9c0.9-0.5,1.9-0.6,2.9-0.2c0.4,0.2,0.9,0.3,1.2,0.6c0.3,0.3,0.4,0.7,0.9,0.8c0.6,0.1,0.9-0.3,1.1-0.8
				c0.2-0.5,0.4-1.2,1.1-0.7c0.4,0.3,0.4,0.9,0.4,1.4c0,0.4-0.1,0.8,0,1.2c0.3,1,1.1,1.5,1.9,2.1c2.1,1.5,4.8,2.6,7.4,2.1
				c0.2,0,0.3-0.1,0.5-0.1c0.2,0,0.3,0.1,0.3,0.2c0,0.1,0,0.2,0.1,0.2c0.1,0.2,0.9,0.5,1.1,0.6c0.5,0.3,0.9,0.6,1.3,1
				c0.7,0.7,1.4,1.6,1.9,2.5c1,1.8,1.6,3.9,1.5,6C80,72.1,80,73.5,80,74.9c0,0.2,0.2,0.5,0.2,0.6c0.1,0.2,0.2,0.5,0.2,0.7
				c0.2,0.5,0.4,0.9,0.7,1.3c0.5,0.8,1.1,1.6,1.8,2.2c0.5,0.5,1,0.9,1.5,1.2c0.2,0.2,0.6,0.3,0.8,0.5c0.2,0.1,0.2,0.1,0.3,0.2
				c0.2,0.3-0.1,0.6-0.3,0.7c-0.3,0.2-0.6,0.2-0.9,0.2c-0.3-0.1-0.6-0.1-0.9-0.2c-0.1,0-0.2,0-0.2,0c-0.1,0-0.2,0-0.2,0.1
				c-0.2,0.2-0.2,0.5-0.3,0.7c-0.1,0.2-0.2,0.5-0.3,0.7l-0.7,1.9c-0.5,1.3-1,2.5-1.5,3.9c-0.2,0.5-0.3,0.9-0.6,1.4
				c-0.6,1.4-1.5,2.7-2.8,3.7c-1.9,1.5-3.7,3.2-6,4.1c-5.2,2-7.4,9.7-7.6,10.2c-0.3,0.8-0.5,1.7-0.3,2.5c0.1,0.6,0.4,1.1,0.8,1.6
				c0.4,0.4,3.3,2.1,3.8,2.7c0.3,0.3,0.6,0.7,0.6,1.2c0.1,1-0.4,2.3-0.7,3.3c-0.3,1-0.6,2.1-0.9,3.3c-0.3,1.3-0.6,2.5-1,3.7
				c-1.9,7-3.7,14.1-5.2,21.1c-1,4.5-1.4,8.9-1.5,13.4c0.8,0.5,1.6,0.9,2.4,1.3c-0.2-5,0.2-10.1,1-15c2-10.4,4.7-20.7,8-30.8
				c6.8-1,13.1-3.7,18.5-7.8c0.3-0.2,0.6-0.5,0.9-0.7c2.5-2,5-4,7.4-6.1c1.2-1,2.4-2.1,3.6-3.2c0.6-0.6,1.2-1.1,1.7-1.7
				c0.5-0.5,0.7-0.9,1.5-0.9c0.2,0,0.4,0.1,0.6,0.2c0.3,0.2,0.3,0.9,0.3,1.2c0.2,1.9,0.3,3.9,0.4,5.8c0.1,1,0.1,2,0.1,3
				c0,0.6,0.2,1.2-0.2,1.8c-0.5,0.9-1,1.7-1.7,2.4c-0.6,0.7-6.1,6.6-6.4,7c-0.2,0.4-0.7,0.8-0.6,1.4c0.2,0.9,1.4-0.1,1.7-0.4
				c0.6-0.5,1.2-1,1.7-1.5c0.7-0.7,1.5-1.4,2.3-2.1c0.6-0.5,1.4-1.4,2.1-1.1c1.1,0.4,0.6,2.5,0.6,3.4c-0.1,1.4-0.2,2.7-0.4,4.1
				c-0.4,2.7-1,5.4-1.7,8c-0.8,2.9-1.7,5.9-2.7,8.8c-0.5,1.4-1,2.9-1.5,4.3c-0.2,0.7-0.5,1.4-0.8,2.1c-0.2,0.6-0.6,0.8-1.1,1.1
				c-0.4,0.2-0.9,0.4-1.3,0.6c-0.9,0.4-1.7,0.8-2.7,1.2c-1.7,0.8-3.4,1.5-5.2,2.3c-1.9,0.8-3.7,1.7-5.6,2.5
				c-0.8,0.4-1.6,0.7-2.5,1.1c-0.7,0.3-1.7,0.6-2.3,1.1c-0.2,0.2-0.6,0.5-0.7,0.7l-0.1,0.1c-0.5,0.9,0.3,2.1,0.6,3
				c0.4,1.2,0.7,2.3,1,3.5c0.6,2.3,1.3,4.5,1.7,6.8c0,0.1,0,0.1,0,0.2s0,0.2,0,0.3c5.2,1.1,10.7,1.7,16.2,1.7
				c33.1,0,61.2-21.2,71.5-50.8l-31.6-36.2C135.7,84.4,135.7,83.8,136.1,83.5z M36.2,104.7c0,0.1-0.1,0.2-0.2,0.2
				c-0.3,0.3-0.8,0.3-1.2,0.5c-0.4,0.2-0.8,0.4-1.1,0.6c-0.6,0.6-1.2,1.4-1.4,2.1c-0.2,1-0.2,2.1,0.3,2.9c0.2,0.5,0.6,0.9,1,1.2
				c0.3,0.2,0.9,0.6,0.8,1c0,0.1,0,0.1-0.1,0.2c-0.2,0.3-1,0.2-1.4,0.1c-2.5-0.5-4.2-2.9-3.8-5.5c0.6-2.2,2.5-3.8,4.8-4.1
				c0.4,0,2.1-0.1,2.1,0.4C36.2,104.7,36.2,104.7,36.2,104.7z M52.3,90.4c-0.3,0.4-0.7,0.7-1.3,1c-0.2,0.2-0.6,0.3-0.7,0.6
				c-0.9,1.1-0.9,2.6-1.2,4.1c-0.4,1.4-0.9,2.8-1.5,4.1c-0.6,1-1.1,2.1-1.8,3c-0.6,0.8-1.9,1.9-1.6,2.9c0.1,0.3,0.5,0.6,0.6,0.9
				l1.6,2.1c0.8,1,1.4,2.2,1.6,3.4c0,0.1,0,0.1,0,0.2c-0.1,0.2-0.3,0.3-0.6,0.2c-1.5-1-1.7-3-3.3-3.9c-0.7-0.4-1.5,0-2.1,0.4
				c-0.7,0.5-1.4,1-1.9,1.7c-0.3,0.3-0.7,0.6-1.2,0.8c-0.2,0.1-1,0.5-1.3,0.1c-0.1-0.2,0-0.3,0.1-0.5c0.2-0.4,0.8-0.6,1-1.1
				c0.4-0.6,0.8-1.4,1-2.1c0.4-1,0.2-2.2-0.4-3c-0.2-0.2-0.6-0.4-0.5-0.8c0-0.1,0.1-0.2,0.1-0.2c0.2-0.3,0.6-0.3,1-0.2
				c0.2,0.1,0.5,0.2,0.7,0.2c0.2,0,0.6-0.1,0.8-0.2c0.1,0,0.2,0,0.2,0c0.1,0,0.2-0.1,0.2-0.2c2.1-1.5,3.5-4.1,4.3-6.5
				c0.6-1.9,1.4-3.7,2.4-5.3c0.8-1.4,2-2.4,3.4-3.1c0.3-0.2,0.6,0.2,0.6,0.5C52.8,89.7,52.5,90.1,52.3,90.4z M53.5,81.9
				c0.4,0.2,0.7,0.4,1,0.7c0.4,0.4,0.8,0.8,1.1,1.3c0.1,0.2,0.2,0.4,0,0.6c-0.2,0.2-0.5,0.1-0.6,0c-0.5-0.5-1-0.7-1.7-0.8
				c-0.5,0-1,0.2-1.3,0.6c-0.3,0.3-0.7,0.6-1.1,0.5c-0.5-0.2-0.2-0.8-0.1-1.2c0.1-0.3,0.2-0.6,0.3-0.8c0.2-0.3,0.2-0.9,0.6-1
				c0.1-0.1,0.2-0.1,0.2-0.1C52.4,81.4,53.1,81.6,53.5,81.9z M51.6,73.9c0.2,1,0.4,1.9,0.6,2.9c0.2,0.7,0.6,1.7,0.2,2.5
				c-0.2,0.4-0.6,0.4-1,0.5c-0.4,0.2-0.9,0.3-1.2,0.6c-0.9,0.9-1.4,2.1-1.4,3.3c0,0.8,0,1.5,0,2.3c0,0.6,0.3,1.6-0.1,2.1
				c0,0,0,0.1-0.1,0.1h-0.1c-0.8-0.1-1.7-0.6-2.4-1.2c-0.4-0.3-0.8-0.6-1-1.1c-0.1-0.5,0.2-1,0.4-1.4c0.4-0.6,0.2-1.3-0.5-1.5
				c-0.5-0.2-0.9-0.4-1.3-0.6c-0.8-0.6-1.6-1.2-2.2-2c-0.7-0.9-1.4-1.8-2-2.7c-0.6-0.8-1.2-1.7-0.5-2.5c0.4-0.5,0.8-1,1.2-1.4
				c0.5-0.5,1.1-0.9,1.4-1.6c0-0.2,0-0.2-0.1-0.4c-0.2-0.2-0.5-0.5-0.6-0.7c-0.3-0.3-0.6-0.6-1-1c-0.7-0.6-1.6-1.3-2.1-2.1
				c-0.5-0.7-0.2-1.3,0.1-2.1c0.2-0.5,0.4-1,0.6-1.5c0.4-1,0-2.1,0.3-3.1c0.2-0.6,1-0.5,1.4-0.6c0.6-0.2,1.3-0.2,2-0.2
				c1.4,0,2.6,0.3,3.9,0.8c0.9,0.4,1.7,0.7,2.6,1c0.6,0.2,1.2,0.4,1.7,0.6c0.3,0.2,0.5,0.3,0.6,0.5c0.1,0.3,0,0.6-0.1,1
				c-0.1,0.4-0.2,0.8-0.2,1.2c-0.2,0.8-0.2,1.7-0.2,2.5s0.3,1.9,0.5,2.8C51.3,72,51.4,72.9,51.6,73.9z M72.2,102.5l-0.2,2.4
				c-0.1,1-0.2,1.9-0.2,2.9c0,0.6-0.5,6.6-1.8,6h-0.1v-0.1c-0.2-1.2,0.4-3.8,0.6-5.6c0.2-1.3,0.2-2.6,0.2-3.9c0-1.1-0.2-2.4,0.3-3.4
				c0-0.1,0.1-0.1,0.1-0.2c0.2-0.2,0.4-0.6,0.6-0.5c0.2,0,0.3,0.2,0.4,0.3C72.5,101,72.2,102,72.2,102.5z M105.1,92.7
				c-0.1,0-0.2,0-0.2-0.1c-0.6-0.3-0.5-1.8-0.5-2.4c0-0.9,0.2-1.7,0.5-2.6c0.6-1.4,1.5-2.7,2.5-3.8c0.6-0.6,1.1-1.1,1.7-1.5
				c0.6-0.5,2.8-1.2,3.6-1.2c1.3,0,2-0.3,2.5-0.6c0.9-0.4,1.1-1.7,1.3-2.5c0.3-1.3,0.7-2.5,1.2-3.7c0.2-0.6,0.5-1,0.7-1.5
				c0.2-0.4,0.3-0.9,0.6-1.1c0.6-0.6,1.7-0.7,2.5-1c0.8-0.2,1.7-0.5,2.5-0.7c0.8-0.2,1.6-0.5,2.4-0.7c0.7-0.2,1.5-0.6,2.3-0.7
				c0.2,0,0.3,0,0.4,0.1c0.1,0.1,0.2,0.2,0.2,0.3c0.2,0.5,0,1-0.1,1.4c-0.1,0.6-0.2,1.2-0.2,1.7c-0.2,1.2-0.4,2.4-0.7,3.5
				c-0.6,2.3-1.2,4.6-2,6.9c-0.3,1-0.6,2.1-1.2,2.9c-0.5,0.8-1.4,1.3-2.4,1.3c-0.5,0-1-0.1-1.5-0.2c-1.1-0.2-2.3,0.2-2.9,1.2
				c-0.7,0.9-1.4,1.8-2.1,2.8c-2.2,3.3-4.4,6.8-6.3,10.3c-0.3,0.6-0.6,1.1-1,1.6c-0.2,0.3-0.6,1-0.9,1.2c-0.2,0.1-0.3,0.1-0.5,0
				c-0.7-0.3-1-1.1-1-1.7c-0.1-0.8-0.1-1.4-0.2-2.6c-0.2-1.7-0.3-3.1,0.4-4.7c1-1.7,2.5-3.2,4.2-4.2c1.9-0.9,3.4-2.4,4.4-4.2
				c0.4-0.7,0.6-1.6,0.6-2.4c0-0.5,0.2-1.7-0.3-2.1c-0.3-0.2-1.4,0.2-1.8,0.3c-0.6,0.2-1.2,0.4-1.7,0.7c-1,0.6-2.2,1.4-2.8,2.3
				c-0.8,1.4-1.5,2.8-2.1,4.2C106.6,90,105.9,92.7,105.1,92.7z M131.9,85.6c-0.6,0.2-0.9,1.1-1.1,1.7c-0.3,0.8-0.6,1.7-0.8,2.5
				c-0.2,1-0.6,1.9-1,2.8c-0.3,0.6-0.7,1-1.2,1.4c-0.8,0.6-1.7,1-2.5,1.4c-0.9,0.6-1.8,1.3-2.7,1.9c-3.3,2.5-5.2,6.4-5.2,10.7
				c0,8.3-1,16.2-5.9,22.9c-0.6,0.9-1.8,2.4-2.4,3.3c-0.6,1-1.4,2-2,2.9c-0.6,1-3.7,4.8-4.1,5.8c-0.5,1-2.1,4.8-2.5,5.6
				c-0.4,1-0.8,1.9-1.3,2.9c-0.9,1.8-1.9,3.7-2.9,5.4c-2.1,3.5-4.7,6.8-7.6,9.8c-0.7,0.7-1.4,1.4-2.2,2.1c-0.4,0.4-1.1,1.4-1.7,1.4
				c-0.1,0-0.2,0-0.3-0.1c-0.2-0.1-0.5-0.2-0.6-0.4c-0.1-0.2-0.1-0.5,0-0.6c0.2-0.5,0.8-0.8,1.1-1.2c1.2-1.1,2.4-2.4,3.3-3.7
				c9.9-11.9,16.1-26.5,17.8-41.9c0.2-1.7,0.3-3.5,0.3-5.3c0.1-3.3,1.3-6.4,3.4-8.9l4.7-5.3c1.8-2.1,3.6-4.1,5.2-6.4
				c0.2-0.3,0.5-0.7,0.6-1c0.5-1.2,0.7-2.4,0.8-3.7c0-0.5,0.1-1.1-0.2-1.6c-0.2-0.5-0.6-0.8-0.6-1.4c0-0.1,0-0.2,0.1-0.2h0.1
				c0.1,0,0.2,0,0.3,0c0.4,0,0.8,0.1,1,0.3c0.4,0.4,0.8,0.9,1.1,1.4c0.7,1.1,2.4-0.2,2.9-1c0.9-1.8,1.4-3.7,1.6-5.6
				c0.1-1,0.5-2.1,1-3c0.2-0.4,0.6-0.7,1-1c0.2-0.2,0.9-0.7,1.1-0.4c0.1,0.1,0.1,0.2,0.1,0.3c-0.2,0.6-0.6,1-1,1.4
				c-0.4,0.6-0.5,1.4-0.2,2.1c0.1,0.1,0.2,0.1,0.2,0c0.2-0.2,0.4-0.4,0.6-0.6c0.3-0.4,0.6-1.3,1.3-1.1c1.1,0.3-0.6,1.9-1,2.3
				c-0.5,0.5-0.8,1.1-0.9,1.8c0,0.2,0.2,0.5,0.4,0.6c0.2,0,0.3-0.1,0.4-0.2l0.2-0.2c0.2-0.3,0.6-0.4,0.9-0.5c0.2,0,0.3-0.1,0.5,0
				c0.2,0.1,0.2,0.2,0.2,0.4C132.2,85.5,132,85.5,131.9,85.6z"/>
		</g>
		<g class="st1">
			<path d="M136.1,83.5c0.4-0.3,1-0.3,1.3,0.1l30.8,35.4c1.6-4.9,2.6-10.1,3.2-15.3l-32.8-21.9c-0.4-0.2-0.6-0.8-0.2-1.2
				c0.2-0.4,0.8-0.6,1.2-0.2l32,21.2c0.2-1.8,0.2-3.7,0.2-5.6c0-1.3,0-2.5-0.1-3.7l-32-14.1c-0.5-0.2-0.6-0.7-0.5-1.2
				c0.2-0.5,0.7-0.6,1.2-0.5l31.1,13.8c-0.4-4.9-1.2-9.8-2.5-14.4l-28.4-1c-0.5,0-0.9-0.4-0.9-1c0-0.5,0.4-0.9,1-0.9l27.8,1
				c-1.1-3.7-2.5-7.2-4.1-10.6l-24.5,7c-0.1,0-0.2,0-0.2,0c-0.4,0-0.7-0.2-0.9-0.6c-0.2-0.5,0.2-1,0.6-1.1l24.2-6.9
				c-1.4-2.9-3-5.6-4.8-8.3l-20.4,13.1c-0.2,0.1-0.3,0.2-0.5,0.2c-0.3,0-0.6-0.2-0.7-0.4c-0.2-0.4-0.2-1,0.2-1.2l20.3-13
				C144,32.9,121.5,20.3,96,20.3c-41.8,0-75.7,33.9-75.7,75.7c0,18.8,6.8,35.9,18.1,49.1c0.6-1.8,1.1-3.6,1.7-5.4
				c1-2.4,1.7-4.8,2.2-7.4c-0.1-2.2,0.2-4.5,1-6.6c0.6-1.4,1.2-2.6,1.7-4c0.2-0.4,2.5-5.4,2.8-5.6c0.3-0.3,0.6-0.9,1.1-0.4
				c0.3,0.3,0.2,1.4,0.2,1.9c0.1,0.7,0.1,1.4,0.2,2.2c0.1,1.4,0.2,2.9,0.3,4.4c0.2,2.8,0.2,5.6,0.3,8.4c0.1,2.8-0.1,5.6,0,8.3
				c0.2,4.9,0.7,9.8,1.7,14.6c0.2,0.8,0.3,1.5,0.6,2.3c0.7,0.6,1.5,1,2.3,1.6c-0.5-1.6-0.9-3.2-1.1-4.8c-0.6-3.4-1-6.8-1.2-10.3
				c-0.2-2.9-1-21.1-1.2-23.3c-0.1-0.8-0.2-1.7-0.3-2.5l-0.3-2.2c-0.1-0.7-0.2-1.4,0-2.1c0.2-0.7,0.9-1.2,1.4-1.7
				c0.6-0.7,1-1.7,1.6-2.5c1.1-1.5,2-3.2,2.8-4.8c0.4-1,0.6-1.9,0.7-2.9c0-0.5,0-1-0.1-1.5c-0.1-0.4-0.1-0.6-0.3-1
				c-0.1-0.1-0.1-0.2-0.2-0.3c-0.3-0.6-0.7-1.3-1.2-1.7c-0.7-0.7-1.3-1.4-2-2.3c-0.6-0.7-1.4-1.4-0.9-2.3c0.3-0.6,1.4-0.6,1.9-0.5
				c1.2,0.2,2.4,0.2,3.6,0.2c0.6,0,1.2-0.3,1.6-0.8c0.2-0.3,0.2-1.3,0.2-1.7c0.1-0.6,0-1.2,0-1.7c-0.1-1.1-0.4-2.3-0.8-3.3
				c-0.9-2.2-2.4-3.7-4.3-5.2c-0.1-0.1-0.2-0.2-0.2-0.2c-0.2-0.2-0.3-0.4-0.4-0.6c-0.3-0.7-0.3-1.5-0.3-2.2
				c-0.4-3.7-0.2-7.6,0.4-11.3c0.5-2.6,2.3-4.8,4.8-5.6c-0.1,0-0.6-0.4-0.7-0.5c-0.2-0.2-0.6-0.2-0.8-0.3c-0.6-0.2-1.1-0.2-1.7-0.1
				C55,59.4,54.4,59.6,54,60c-0.5,0.4-0.6,1-1.3,1h-0.1c-0.1,0-0.1,0-0.2,0c-0.1-0.1-0.3-0.7-0.4-0.8c-0.1-0.3-0.1-0.6-0.2-1
				c-0.2-0.7-0.9-2.1-0.2-2.7c0.3-0.3,0.7-0.4,1.2-0.4c0.4,0,1,0.2,1.3-0.2c0.5-0.4,0.8-1,1.2-1.5c0.3-0.4,0.7-0.6,1.2-0.9
				c0.9-0.5,1.9-0.6,2.9-0.2c0.4,0.2,0.9,0.3,1.2,0.6c0.3,0.3,0.4,0.7,0.9,0.8c0.6,0.1,0.9-0.3,1.1-0.8c0.2-0.5,0.4-1.2,1.1-0.7
				c0.4,0.3,0.4,0.9,0.4,1.4c0,0.4-0.1,0.8,0,1.2c0.3,1,1.1,1.5,1.9,2.1c2.1,1.5,4.8,2.6,7.4,2.1c0.2,0,0.3-0.1,0.5-0.1
				c0.2,0,0.3,0.1,0.3,0.2c0,0.1,0,0.2,0.1,0.2c0.1,0.2,0.9,0.5,1.1,0.6c0.5,0.3,0.9,0.6,1.3,1c0.7,0.7,1.4,1.6,1.9,2.5
				c1,1.8,1.6,3.9,1.5,6C80,72.1,80,73.5,80,74.9c0,0.2,0.2,0.5,0.2,0.6c0.1,0.2,0.2,0.5,0.2,0.7c0.2,0.5,0.4,0.9,0.7,1.3
				c0.5,0.8,1.1,1.6,1.8,2.2c0.5,0.5,1,0.9,1.5,1.2c0.2,0.2,0.6,0.3,0.8,0.5c0.2,0.1,0.2,0.1,0.3,0.2c0.2,0.3-0.1,0.6-0.3,0.7
				c-0.3,0.2-0.6,0.2-0.9,0.2c-0.3-0.1-0.6-0.1-0.9-0.2c-0.1,0-0.2,0-0.2,0c-0.1,0-0.2,0-0.2,0.1c-0.2,0.2-0.2,0.5-0.3,0.7
				c-0.1,0.2-0.2,0.5-0.3,0.7l-0.7,1.9c-0.5,1.3-1,2.5-1.5,3.9c-0.2,0.5-0.3,0.9-0.6,1.4c-0.6,1.4-1.5,2.7-2.8,3.7
				c-1.9,1.5-3.7,3.2-6,4.1c-5.2,2-7.4,9.7-7.6,10.2c-0.3,0.8-0.5,1.7-0.3,2.5c0.1,0.6,0.4,1.1,0.8,1.6c0.4,0.4,3.3,2.1,3.8,2.7
				c0.3,0.3,0.6,0.7,0.6,1.2c0.1,1-0.4,2.3-0.7,3.3c-0.3,1-0.6,2.1-0.9,3.3c-0.3,1.3-0.6,2.5-1,3.7c-1.9,7-3.7,14.1-5.2,21.1
				c-1,4.5-1.4,8.9-1.5,13.4c0.8,0.5,1.6,0.9,2.4,1.3c-0.2-5,0.2-10.1,1-15c2-10.4,4.7-20.7,8-30.8c6.8-1,13.1-3.7,18.5-7.8
				c0.3-0.2,0.6-0.5,0.9-0.7c2.5-2,5-4,7.4-6.1c1.2-1,2.4-2.1,3.6-3.2c0.6-0.6,1.2-1.1,1.7-1.7c0.5-0.5,0.7-0.9,1.5-0.9
				c0.2,0,0.4,0.1,0.6,0.2c0.3,0.2,0.3,0.9,0.3,1.2c0.2,1.9,0.3,3.9,0.4,5.8c0.1,1,0.1,2,0.1,3c0,0.6,0.2,1.2-0.2,1.8
				c-0.5,0.9-1,1.7-1.7,2.4c-0.6,0.7-6.1,6.6-6.4,7c-0.2,0.4-0.7,0.8-0.6,1.4c0.2,0.9,1.4-0.1,1.7-0.4c0.6-0.5,1.2-1,1.7-1.5
				c0.7-0.7,1.5-1.4,2.3-2.1c0.6-0.5,1.4-1.4,2.1-1.1c1.1,0.4,0.6,2.5,0.6,3.4c-0.1,1.4-0.2,2.7-0.4,4.1c-0.4,2.7-1,5.4-1.7,8
				c-0.8,2.9-1.7,5.9-2.7,8.8c-0.5,1.4-1,2.9-1.5,4.3c-0.2,0.7-0.5,1.4-0.8,2.1c-0.2,0.6-0.6,0.8-1.1,1.1c-0.4,0.2-0.9,0.4-1.3,0.6
				c-0.9,0.4-1.7,0.8-2.7,1.2c-1.7,0.8-3.4,1.5-5.2,2.3c-1.9,0.8-3.7,1.7-5.6,2.5c-0.8,0.4-1.6,0.7-2.5,1.1
				c-0.7,0.3-1.7,0.6-2.3,1.1c-0.2,0.2-0.6,0.5-0.7,0.7l-0.1,0.1c-0.5,0.9,0.3,2.1,0.6,3c0.4,1.2,0.7,2.3,1,3.5
				c0.6,2.3,1.3,4.5,1.7,6.8c0,0.1,0,0.1,0,0.2s0,0.2,0,0.3c5.2,1.1,10.7,1.7,16.2,1.7c33.1,0,61.2-21.2,71.5-50.8l-31.6-36.2
				C135.7,84.4,135.7,83.8,136.1,83.5z M36.2,104.7c0,0.1-0.1,0.2-0.2,0.2c-0.3,0.3-0.8,0.3-1.2,0.5c-0.4,0.2-0.8,0.4-1.1,0.6
				c-0.6,0.6-1.2,1.4-1.4,2.1c-0.2,1-0.2,2.1,0.3,2.9c0.2,0.5,0.6,0.9,1,1.2c0.3,0.2,0.9,0.6,0.8,1c0,0.1,0,0.1-0.1,0.2
				c-0.2,0.3-1,0.2-1.4,0.1c-2.5-0.5-4.2-2.9-3.8-5.5c0.6-2.2,2.5-3.8,4.8-4.1c0.4,0,2.1-0.1,2.1,0.4
				C36.2,104.7,36.2,104.7,36.2,104.7z M52.3,90.4c-0.3,0.4-0.7,0.7-1.3,1c-0.2,0.2-0.6,0.3-0.7,0.6c-0.9,1.1-0.9,2.6-1.2,4.1
				c-0.4,1.4-0.9,2.8-1.5,4.1c-0.6,1-1.1,2.1-1.8,3c-0.6,0.8-1.9,1.9-1.6,2.9c0.1,0.3,0.5,0.6,0.6,0.9l1.6,2.1
				c0.8,1,1.4,2.2,1.6,3.4c0,0.1,0,0.1,0,0.2c-0.1,0.2-0.3,0.3-0.6,0.2c-1.5-1-1.7-3-3.3-3.9c-0.7-0.4-1.5,0-2.1,0.4
				c-0.7,0.5-1.4,1-1.9,1.7c-0.3,0.3-0.7,0.6-1.2,0.8c-0.2,0.1-1,0.5-1.3,0.1c-0.1-0.2,0-0.3,0.1-0.5c0.2-0.4,0.8-0.6,1-1.1
				c0.4-0.6,0.8-1.4,1-2.1c0.4-1,0.2-2.2-0.4-3c-0.2-0.2-0.6-0.4-0.5-0.8c0-0.1,0.1-0.2,0.1-0.2c0.2-0.3,0.6-0.3,1-0.2
				c0.2,0.1,0.5,0.2,0.7,0.2c0.2,0,0.6-0.1,0.8-0.2c0.1,0,0.2,0,0.2,0c0.1,0,0.2-0.1,0.2-0.2c2.1-1.5,3.5-4.1,4.3-6.5
				c0.6-1.9,1.4-3.7,2.4-5.3c0.8-1.4,2-2.4,3.4-3.1c0.3-0.2,0.6,0.2,0.6,0.5C52.8,89.7,52.5,90.1,52.3,90.4z M53.5,81.9
				c0.4,0.2,0.7,0.4,1,0.7c0.4,0.4,0.8,0.8,1.1,1.3c0.1,0.2,0.2,0.4,0,0.6c-0.2,0.2-0.5,0.1-0.6,0c-0.5-0.5-1-0.7-1.7-0.8
				c-0.5,0-1,0.2-1.3,0.6c-0.3,0.3-0.7,0.6-1.1,0.5c-0.5-0.2-0.2-0.8-0.1-1.2c0.1-0.3,0.2-0.6,0.3-0.8c0.2-0.3,0.2-0.9,0.6-1
				c0.1-0.1,0.2-0.1,0.2-0.1C52.4,81.4,53.1,81.6,53.5,81.9z M51.6,73.9c0.2,1,0.4,1.9,0.6,2.9c0.2,0.7,0.6,1.7,0.2,2.5
				c-0.2,0.4-0.6,0.4-1,0.5c-0.4,0.2-0.9,0.3-1.2,0.6c-0.9,0.9-1.4,2.1-1.4,3.3c0,0.8,0,1.5,0,2.3c0,0.6,0.3,1.6-0.1,2.1
				c0,0,0,0.1-0.1,0.1h-0.1c-0.8-0.1-1.7-0.6-2.4-1.2c-0.4-0.3-0.8-0.6-1-1.1c-0.1-0.5,0.2-1,0.4-1.4c0.4-0.6,0.2-1.3-0.5-1.5
				c-0.5-0.2-0.9-0.4-1.3-0.6c-0.8-0.6-1.6-1.2-2.2-2c-0.7-0.9-1.4-1.8-2-2.7c-0.6-0.8-1.2-1.7-0.5-2.5c0.4-0.5,0.8-1,1.2-1.4
				c0.5-0.5,1.1-0.9,1.4-1.6c0-0.2,0-0.2-0.1-0.4c-0.2-0.2-0.5-0.5-0.6-0.7c-0.3-0.3-0.6-0.6-1-1c-0.7-0.6-1.6-1.3-2.1-2.1
				c-0.5-0.7-0.2-1.3,0.1-2.1c0.2-0.5,0.4-1,0.6-1.5c0.4-1,0-2.1,0.3-3.1c0.2-0.6,1-0.5,1.4-0.6c0.6-0.2,1.3-0.2,2-0.2
				c1.4,0,2.6,0.3,3.9,0.8c0.9,0.4,1.7,0.7,2.6,1c0.6,0.2,1.2,0.4,1.7,0.6c0.3,0.2,0.5,0.3,0.6,0.5c0.1,0.3,0,0.6-0.1,1
				c-0.1,0.4-0.2,0.8-0.2,1.2c-0.2,0.8-0.2,1.7-0.2,2.5s0.3,1.9,0.5,2.8C51.3,72,51.4,72.9,51.6,73.9z M72.2,102.5l-0.2,2.4
				c-0.1,1-0.2,1.9-0.2,2.9c0,0.6-0.5,6.6-1.8,6h-0.1v-0.1c-0.2-1.2,0.4-3.8,0.6-5.6c0.2-1.3,0.2-2.6,0.2-3.9c0-1.1-0.2-2.4,0.3-3.4
				c0-0.1,0.1-0.1,0.1-0.2c0.2-0.2,0.4-0.6,0.6-0.5c0.2,0,0.3,0.2,0.4,0.3C72.5,101,72.2,102,72.2,102.5z M105.1,92.7
				c-0.1,0-0.2,0-0.2-0.1c-0.6-0.3-0.5-1.8-0.5-2.4c0-0.9,0.2-1.7,0.5-2.6c0.6-1.4,1.5-2.7,2.5-3.8c0.6-0.6,1.1-1.1,1.7-1.5
				c0.6-0.5,2.8-1.2,3.6-1.2c1.3,0,2-0.3,2.5-0.6c0.9-0.4,1.1-1.7,1.3-2.5c0.3-1.3,0.7-2.5,1.2-3.7c0.2-0.6,0.5-1,0.7-1.5
				c0.2-0.4,0.3-0.9,0.6-1.1c0.6-0.6,1.7-0.7,2.5-1c0.8-0.2,1.7-0.5,2.5-0.7c0.8-0.2,1.6-0.5,2.4-0.7c0.7-0.2,1.5-0.6,2.3-0.7
				c0.2,0,0.3,0,0.4,0.1c0.1,0.1,0.2,0.2,0.2,0.3c0.2,0.5,0,1-0.1,1.4c-0.1,0.6-0.2,1.2-0.2,1.7c-0.2,1.2-0.4,2.4-0.7,3.5
				c-0.6,2.3-1.2,4.6-2,6.9c-0.3,1-0.6,2.1-1.2,2.9c-0.5,0.8-1.4,1.3-2.4,1.3c-0.5,0-1-0.1-1.5-0.2c-1.1-0.2-2.3,0.2-2.9,1.2
				c-0.7,0.9-1.4,1.8-2.1,2.8c-2.2,3.3-4.4,6.8-6.3,10.3c-0.3,0.6-0.6,1.1-1,1.6c-0.2,0.3-0.6,1-0.9,1.2c-0.2,0.1-0.3,0.1-0.5,0
				c-0.7-0.3-1-1.1-1-1.7c-0.1-0.8-0.1-1.4-0.2-2.6c-0.2-1.7-0.3-3.1,0.4-4.7c1-1.7,2.5-3.2,4.2-4.2c1.9-0.9,3.4-2.4,4.4-4.2
				c0.4-0.7,0.6-1.6,0.6-2.4c0-0.5,0.2-1.7-0.3-2.1c-0.3-0.2-1.4,0.2-1.8,0.3c-0.6,0.2-1.2,0.4-1.7,0.7c-1,0.6-2.2,1.4-2.8,2.3
				c-0.8,1.4-1.5,2.8-2.1,4.2C106.6,90,105.9,92.7,105.1,92.7z M131.9,85.6c-0.6,0.2-0.9,1.1-1.1,1.7c-0.3,0.8-0.6,1.7-0.8,2.5
				c-0.2,1-0.6,1.9-1,2.8c-0.3,0.6-0.7,1-1.2,1.4c-0.8,0.6-1.7,1-2.5,1.4c-0.9,0.6-1.8,1.3-2.7,1.9c-3.3,2.5-5.2,6.4-5.2,10.7
				c0,8.3-1,16.2-5.9,22.9c-0.6,0.9-1.8,2.4-2.4,3.3c-0.6,1-1.4,2-2,2.9c-0.6,1-3.7,4.8-4.1,5.8c-0.5,1-2.1,4.8-2.5,5.6
				c-0.4,1-0.8,1.9-1.3,2.9c-0.9,1.8-1.9,3.7-2.9,5.4c-2.1,3.5-4.7,6.8-7.6,9.8c-0.7,0.7-1.4,1.4-2.2,2.1c-0.4,0.4-1.1,1.4-1.7,1.4
				c-0.1,0-0.2,0-0.3-0.1c-0.2-0.1-0.5-0.2-0.6-0.4c-0.1-0.2-0.1-0.5,0-0.6c0.2-0.5,0.8-0.8,1.1-1.2c1.2-1.1,2.4-2.4,3.3-3.7
				c9.9-11.9,16.1-26.5,17.8-41.9c0.2-1.7,0.3-3.5,0.3-5.3c0.1-3.3,1.3-6.4,3.4-8.9l4.7-5.3c1.8-2.1,3.6-4.1,5.2-6.4
				c0.2-0.3,0.5-0.7,0.6-1c0.5-1.2,0.7-2.4,0.8-3.7c0-0.5,0.1-1.1-0.2-1.6c-0.2-0.5-0.6-0.8-0.6-1.4c0-0.1,0-0.2,0.1-0.2h0.1
				c0.1,0,0.2,0,0.3,0c0.4,0,0.8,0.1,1,0.3c0.4,0.4,0.8,0.9,1.1,1.4c0.7,1.1,2.4-0.2,2.9-1c0.9-1.8,1.4-3.7,1.6-5.6
				c0.1-1,0.5-2.1,1-3c0.2-0.4,0.6-0.7,1-1c0.2-0.2,0.9-0.7,1.1-0.4c0.1,0.1,0.1,0.2,0.1,0.3c-0.2,0.6-0.6,1-1,1.4
				c-0.4,0.6-0.5,1.4-0.2,2.1c0.1,0.1,0.2,0.1,0.2,0c0.2-0.2,0.4-0.4,0.6-0.6c0.3-0.4,0.6-1.3,1.3-1.1c1.1,0.3-0.6,1.9-1,2.3
				c-0.5,0.5-0.8,1.1-0.9,1.8c0,0.2,0.2,0.5,0.4,0.6c0.2,0,0.3-0.1,0.4-0.2l0.2-0.2c0.2-0.3,0.6-0.4,0.9-0.5c0.2,0,0.3-0.1,0.5,0
				c0.2,0.1,0.2,0.2,0.2,0.4C132.2,85.5,132,85.5,131.9,85.6z"/>
		</g>
	</g>
</g>
</svg>
